<?xml version="1.0" standalone="no"?>
<!DOCTYPE svg PUBLIC "-//W3C//DTD SVG 20010904//EN"
 "http://www.w3.org/TR/2001/REC-SVG-20010904/DTD/svg10.dtd">
<svg version="1.0" xmlns="http://www.w3.org/2000/svg"
 width="512.000000pt" height="512.000000pt" viewBox="0 0 512.000000 512.000000"
 preserveAspectRatio="xMidYMid meet">
<metadata>
Created by potrace 1.11, written by Peter Selinger 2001-2013
</metadata>
<g transform="translate(0.000000,512.000000) scale(0.100000,-0.100000)"
fill="#000000" stroke="none">
<path d="M946 5098 c-3 -13 -6 -62 -6 -110 0 -102 39 -241 92 -331 45 -75 167
-191 241 -229 101 -53 119 -58 242 -73 28 -4 53 -10 56 -13 8 -8 81 -186 114
-277 12 -33 29 -74 38 -92 9 -18 17 -37 17 -44 0 -7 13 -42 29 -78 30 -68 139
-334 147 -361 3 -10 -13 -29 -45 -53 -73 -56 -205 -198 -254 -275 -181 -280
-227 -647 -121 -952 59 -170 133 -295 245 -412 60 -62 172 -158 185 -158 3 0
20 -11 37 -24 59 -44 238 -118 337 -138 321 -65 690 25 935 227 28 23 56 45
63 49 8 5 60 -24 143 -81 71 -48 147 -99 169 -113 39 -26 328 -221 433 -295
33 -22 84 -57 115 -77 l56 -36 1 -139 c1 -132 2 -142 34 -218 39 -96 68 -142
135 -214 145 -154 348 -217 575 -180 36 5 86 19 113 31 l48 20 0 560 0 559
-43 19 c-77 34 -211 52 -312 41 -87 -9 -199 -47 -262 -88 -21 -14 -25 -14 -41
0 -9 8 -82 59 -162 113 -80 54 -178 121 -218 148 -40 28 -90 62 -112 76 -21
14 -98 66 -170 115 -72 50 -139 95 -148 100 -10 6 -33 22 -51 37 l-34 26 17
37 c39 81 60 221 61 395 0 152 -2 173 -28 260 -35 120 -87 234 -151 330 -53
80 -233 265 -282 290 -16 8 -43 25 -60 37 -16 12 -76 43 -131 67 -128 57 -267
84 -468 93 l-151 6 -18 41 c-10 23 -31 73 -46 111 -16 39 -42 104 -58 145 -17
41 -40 100 -51 130 -12 30 -30 75 -41 100 -10 25 -44 109 -75 187 l-56 141 56
74 c90 120 143 289 131 417 -3 38 -9 76 -12 85 -6 14 -70 16 -629 16 l-623 0
-6 -22z m1798 -2107 c161 -79 253 -208 276 -387 12 -92 1 -156 -44 -250 -46
-98 -123 -174 -223 -222 -72 -34 -84 -37 -163 -36 -120 2 -195 20 -270 64 -85
50 -139 108 -186 200 -39 75 -39 75 -39 195 1 138 13 183 76 273 47 67 101
113 184 154 71 35 142 48 247 44 63 -2 89 -8 142 -35z"/>
<path d="M4865 4775 c-131 -35 -214 -83 -307 -178 -132 -134 -194 -330 -168
-529 21 -164 128 -332 273 -430 110 -75 294 -121 411 -104 l46 7 0 619 c0 554
-2 618 -16 624 -28 11 -188 5 -239 -9z"/>
<path d="M3929 3554 c-129 -86 -234 -159 -234 -162 0 -11 153 -239 165 -247
12 -7 454 279 481 311 11 14 -145 254 -166 254 -7 0 -118 -70 -246 -156z"/>
<path d="M0 2714 c0 -562 2 -624 16 -624 33 0 152 55 219 101 290 201 361 597
159 884 -82 118 -219 218 -336 248 l-58 15 0 -624z"/>
<path d="M752 2821 c-8 -5 -14 -57 -19 -163 l-6 -155 79 -6 c43 -4 152 -10
240 -13 l162 -7 6 94 c4 52 8 123 9 159 l2 65 -58 6 c-31 4 -133 10 -225 14
-92 4 -169 8 -172 10 -3 2 -11 0 -18 -4z"/>
<path d="M1603 1518 c-29 -32 -303 -464 -303 -478 0 -8 255 -170 268 -170 10
0 53 63 166 240 26 41 72 113 102 160 30 47 53 91 52 99 -4 17 -238 171 -261
171 -2 0 -13 -10 -24 -22z"/>
<path d="M929 769 c-251 -22 -465 -189 -548 -429 -25 -72 -38 -217 -27 -293
l7 -47 624 0 c447 0 626 3 631 11 3 6 7 59 7 118 1 94 -3 116 -30 197 -38 109
-79 181 -142 248 -88 93 -237 172 -361 191 -25 3 -52 8 -60 9 -8 2 -54 0 -101
-5z"/>
</g>
</svg>
