<?xml version="1.0" standalone="no"?>
<!DOCTYPE svg PUBLIC "-//W3C//DTD SVG 20010904//EN"
 "http://www.w3.org/TR/2001/REC-SVG-20010904/DTD/svg10.dtd">
<svg version="1.0" xmlns="http://www.w3.org/2000/svg"
 width="512.000000pt" height="512.000000pt" viewBox="0 0 512.000000 512.000000"
 preserveAspectRatio="xMidYMid meet">
<metadata>
Created by potrace 1.11, written by Peter Selinger 2001-2013
</metadata>
<g transform="translate(0.000000,512.000000) scale(0.100000,-0.100000)"
fill="#000000" stroke="none">
<path d="M2435 4314 c-387 -39 -684 -160 -977 -397 -419 -339 -663 -889 -633
-1427 19 -335 102 -601 273 -880 218 -353 594 -637 992 -746 168 -46 263 -58
475 -58 222 -1 350 14 541 64 421 109 688 292 871 598 62 105 119 240 106 253
-18 18 -115 60 -174 76 -47 13 -103 17 -209 17 -206 0 -231 -13 -271 -149 -85
-282 -215 -467 -393 -554 -199 -98 -385 -71 -538 81 -83 82 -137 163 -208 312
-112 235 -170 471 -197 799 -41 481 42 987 216 1331 160 315 355 460 573 425
70 -11 121 -34 189 -86 163 -124 319 -428 393 -768 15 -66 29 -130 31 -142 l5
-23 -314 0 -315 0 -26 34 c-18 24 -28 52 -32 91 -3 30 -10 58 -14 61 -18 11
-158 5 -190 -9 -57 -24 -88 -65 -165 -218 l-73 -146 52 -65 c29 -35 70 -86 92
-111 l41 -47 79 22 80 23 788 -2 789 -2 -7 72 c-16 167 -69 374 -137 527 -137
311 -350 565 -627 752 -216 144 -436 233 -676 273 -90 15 -335 27 -410 19z
m-456 -1529 c-47 -323 -23 -734 61 -1061 58 -224 139 -388 255 -513 77 -83 51
-71 -63 28 -185 162 -311 441 -353 775 -14 120 -7 352 16 481 22 124 82 361
90 353 1 -2 -1 -30 -6 -63z"/>
</g>
</svg>
